<svg xmlns="http://www.w3.org/2000/svg" xmlns:xlink="http://www.w3.org/1999/xlink" version="1.1" x="0px" y="0px" viewBox="0 0 100 125" enable-background="new 0 0 100 100" xml:space="preserve"><g><path fill="none" d="M50,19.21c-16.978,0-30.789,13.813-30.789,30.79C19.211,66.978,33.022,80.79,50,80.79S80.789,66.978,80.789,50   C80.789,33.023,66.978,19.21,50,19.21z"/><path fill="#000000" d="M50,5C25.187,5,5,25.187,5,50c0,24.813,20.187,45,45,45s45-20.187,45-45C95,25.187,74.813,5,50,5z    M50,80.79C33.022,80.79,19.211,66.978,19.211,50c0-16.978,13.812-30.79,30.789-30.79S80.789,33.023,80.789,50   C80.789,66.978,66.978,80.79,50,80.79z"/></g><text x="0" y="115" fill="#000000" font-size="5px" font-weight="bold" font-family="'Helvetica Neue', Helvetica, Arial-Unicode, Arial, Sans-serif">Created by Alena Artemova</text><text x="0" y="120" fill="#000000" font-size="5px" font-weight="bold" font-family="'Helvetica Neue', Helvetica, Arial-Unicode, Arial, Sans-serif">from the Noun Project</text></svg>