<svg xmlns="http://www.w3.org/2000/svg" xmlns:xlink="http://www.w3.org/1999/xlink" version="1.1" x="0px" y="0px" viewBox="0 0 100 125" enable-background="new 0 0 100 100" xml:space="preserve"><path d="M64.937,50l20.827-20.827c4.125-4.125,4.125-10.812,0-14.937c-4.125-4.125-10.812-4.125-14.937,0L50,35.063L29.173,14.236  c-4.125-4.125-10.812-4.125-14.937,0c-4.125,4.125-4.125,10.812,0,14.937L35.063,50L14.236,70.827  c-4.125,4.125-4.125,10.812,0,14.937c4.125,4.125,10.812,4.125,14.937,0L50,64.937l20.827,20.827c4.125,4.125,10.812,4.125,14.937,0  c4.125-4.125,4.125-10.812,0-14.937L64.937,50z"/><text x="0" y="115" fill="#000000" font-size="5px" font-weight="bold" font-family="'Helvetica Neue', Helvetica, Arial-Unicode, Arial, Sans-serif">Created by Rizalwale</text><text x="0" y="120" fill="#000000" font-size="5px" font-weight="bold" font-family="'Helvetica Neue', Helvetica, Arial-Unicode, Arial, Sans-serif">from the Noun Project</text></svg>